<svg width="41" height="36" viewBox="0 0 41 36" fill="none" xmlns="http://www.w3.org/2000/svg">
<path d="M34.654 0.844252L20.5536 11.8596C16.0952 9.00678 10.1433 9.11534 5.73586 12.5585C0.146387 16.925 -0.847457 25.0162 3.51911 30.6057C7.88568 36.1952 15.9768 37.189 21.5663 32.8224C25.9737 29.3793 27.5195 23.6306 25.8305 18.6143L26.4215 18.1525L32.4372 18.8915L33.1761 12.8757L39.1919 13.6146L40.6169 1.51562L34.654 0.844252ZM17.6087 27.7564C14.8224 29.9331 10.7618 29.4344 8.5851 26.6481C6.40841 23.8618 6.90718 19.8011 9.69348 17.6245C12.4798 15.4478 16.5404 15.9465 18.7171 18.7328C20.8938 21.5191 20.395 25.5797 17.6087 27.7564Z" fill="white"/>
</svg>
