<svg width="35" height="35" viewBox="0 0 35 35" fill="none" xmlns="http://www.w3.org/2000/svg">
<path d="M7.2625 4.375C7.375 6.04375 7.65625 7.675 8.10625 9.23125L5.85625 11.4812C5.0875 9.23125 4.6 6.85 4.43125 4.375H7.2625ZM25.75 26.9125C27.3438 27.3625 28.975 27.6437 30.625 27.7562V30.55C28.15 30.3812 25.7687 29.8937 23.5 29.1437L25.75 26.9125ZM9.0625 0.625H2.5C1.46875 0.625 0.625 1.46875 0.625 2.5C0.625 20.1063 14.8937 34.375 32.5 34.375C33.5312 34.375 34.375 33.5312 34.375 32.5V25.9563C34.375 24.925 33.5312 24.0813 32.5 24.0813C30.175 24.0813 27.9062 23.7062 25.8063 23.0125C25.6187 22.9375 25.4125 22.9188 25.225 22.9188C24.7375 22.9188 24.2687 23.1063 23.8937 23.4625L19.7687 27.5875C14.4625 24.8687 10.1125 20.5375 7.4125 15.2312L11.5375 11.1063C12.0625 10.5813 12.2125 9.85 12.0062 9.19375C11.3125 7.09375 10.9375 4.84375 10.9375 2.5C10.9375 1.46875 10.0938 0.625 9.0625 0.625Z" fill="white"/>
</svg>
